<svg width="16" height="16" viewBox="0 0 16 16" fill="none" xmlns="http://www.w3.org/2000/svg">
<path d="M7.28695 6.22022L7.64051 5.86667L6.9334 5.15956L6.57985 5.51311L7.28695 6.22022ZM4.80007 8L4.44651 7.64645L4.09296 8L4.44651 8.35355L4.80007 8ZM6.57985 10.4869L6.9334 10.8404L7.64051 10.1333L7.28695 9.77978L6.57985 10.4869ZM6.57985 5.51311L4.44651 7.64645L5.15362 8.35355L7.28695 6.22022L6.57985 5.51311ZM4.44651 8.35355L6.57985 10.4869L7.28695 9.77978L5.15362 7.64645L4.44651 8.35355ZM4.80007 8.5L11.7334 8.5L11.7334 7.5L4.80007 7.5L4.80007 8.5Z" fill="currentColor"/>
</svg>
