<svg fill="none" viewBox="0 0 36 36" id="icon_tg">
  <g clip-path="url(#icon_tg_a)">
    <path fill-rule="evenodd" clip-rule="evenodd" d="M36 18c0 9.942-8.059 18-18 18S0 27.943 0 18C0 8.06 8.059 0 18 0s18 8.06 18 18Zm-23.947-1.648c-1.803.787-3.655 1.596-5.35 2.53-.884.647.292 1.105 1.395 1.535.175.068.349.136.512.203l.413.13c1.227.391 2.595.827 3.786.172 1.957-1.124 3.803-2.424 5.648-3.722.604-.425 1.208-.85 1.816-1.27l.096-.062c.518-.335 1.683-1.09 1.252-.05-1.019 1.114-2.11 2.1-3.207 3.092-.74.669-1.482 1.34-2.207 2.053-.63.513-1.286 1.544-.58 2.262a318.577 318.577 0 0 0 4.928 3.359c.54.363 1.078.725 1.616 1.089.91.725 2.33.138 2.53-.996l.267-1.564c.494-2.884.987-5.769 1.423-8.662.06-.454.126-.907.194-1.361.162-1.1.325-2.203.376-3.309-.131-1.104-1.47-.861-2.214-.613-3.83 1.457-7.62 3.022-11.396 4.615-.427.189-.861.378-1.298.569Z" fill="currentColor"></path>
  </g>
</svg>
