<svg width="20" height="21" viewBox="0 0 20 21" fill="none" xmlns="http://www.w3.org/2000/svg">
<path d="M7.68813 11.0719L7.33599 10.7169L6.62607 11.4212L6.97821 11.7762L7.68813 11.0719ZM9.99984 14.112L9.64488 14.4642L9.99984 14.822L10.3548 14.4642L9.99984 14.112ZM13.0215 11.7762L13.3736 11.4212L12.6637 10.7169L12.3115 11.0719L13.0215 11.7762ZM0.666504 10.08L0.166504 10.08L0.666504 10.08ZM9.99984 0.672012L9.99984 0.172012L9.99984 0.672012ZM9.99984 19.488L9.99984 18.988L9.99984 19.488ZM19.3332 10.08L18.8332 10.08L19.3332 10.08ZM6.97821 11.7762L9.64488 14.4642L10.3548 13.7599L7.68813 11.0719L6.97821 11.7762ZM10.3548 14.4642L13.0215 11.7762L12.3115 11.0719L9.64488 13.7599L10.3548 14.4642ZM10.4998 14.112L10.4998 5.37601L9.49984 5.37601L9.49984 14.112L10.4998 14.112ZM1.1665 10.08C1.1665 5.1565 5.12507 1.17201 9.99984 1.17201L9.99984 0.172012C4.56529 0.172012 0.166504 4.61174 0.166504 10.08L1.1665 10.08ZM9.99984 18.988C5.12507 18.988 1.1665 15.0035 1.1665 10.08L0.166504 10.08C0.166504 15.5483 4.56529 19.988 9.99984 19.988L9.99984 18.988ZM18.8332 10.08C18.8332 15.0035 14.8746 18.988 9.99984 18.988L9.99984 19.988C15.4344 19.988 19.8332 15.5483 19.8332 10.08L18.8332 10.08ZM19.8332 10.08C19.8332 4.61174 15.4344 0.172013 9.99984 0.172012L9.99984 1.17201C14.8746 1.17201 18.8332 5.1565 18.8332 10.08L19.8332 10.08Z" fill="currentColor"/>
</svg>
