<?xml version="1.0" encoding="utf-8"?><svg viewBox="0 0 40 40" xmlns="http://www.w3.org/2000/svg" xmlns:xlink="http://www.w3.org/1999/xlink"><style>:root>svg{display:none}:root>svg:target{display:block}</style><svg fill="none" viewBox="0 0 20 21" id="icon_arrow_down_circle" xmlns="http://www.w3.org/2000/svg"><path d="M7.688 11.072l-.352-.355-.71.704.352.355.71-.704zM10 14.112l-.355.352.355.358.355-.358-.355-.352zm3.021-2.336l.353-.355-.71-.704-.352.355.71.704zM.668 10.08h-.5.5zM10 .672v-.5.5zm0 18.816v-.5.5zm9.333-9.408h-.5.5zM6.978 11.776l2.667 2.688.71-.704-2.667-2.688-.71.704zm3.377 2.688l2.666-2.688-.71-.704-2.666 2.688.71.704zm.145-.352V5.376h-1v8.736h1zM1.166 10.08c0-4.923 3.96-8.908 8.834-8.908v-1C4.565.172.167 4.612.167 10.08h1zM10 18.988c-4.875 0-8.833-3.984-8.833-8.908h-1c0 5.468 4.398 9.908 9.833 9.908v-1zm8.833-8.908c0 4.924-3.958 8.908-8.833 8.908v1c5.434 0 9.833-4.44 9.833-9.908h-1zm1 0c0-5.468-4.399-9.908-9.833-9.908v1c4.875 0 8.833 3.985 8.833 8.908h1z" fill="currentColor"/></svg><svg fill="none" viewBox="0 0 16 16" id="icon_arrow_left" xmlns="http://www.w3.org/2000/svg"><path d="M7.287 6.22l.354-.353-.708-.707-.353.353.707.707zM4.8 8l-.353-.354L4.093 8l.354.354L4.8 8zm1.78 2.487l.353.353.708-.707-.354-.353-.707.707zm0-4.974L4.447 7.646l.707.708L7.287 6.22l-.707-.707zm-2.133 2.84l2.133 2.134.707-.707-2.133-2.134-.707.708zM4.8 8.5h6.933v-1H4.8v1z" fill="currentColor"/></svg><svg fill="none" viewBox="0 0 16 16" id="icon_arrow_right" xmlns="http://www.w3.org/2000/svg"><path d="M8.713 9.78l-.354.353.708.707.353-.353-.707-.707zM11.2 8l.354.354.353-.354-.354-.354L11.2 8zM9.42 5.513l-.353-.353-.708.707.354.353.707-.707zm0 4.974l2.133-2.133-.707-.708L8.713 9.78l.707.707zm2.133-2.84L9.42 5.512l-.707.707 2.133 2.134.707-.708zM11.2 7.5H4.267v1H11.2v-1z" fill="currentColor"/></svg><svg fill="none" viewBox="0 0 20 20" id="icon_burger_end" xmlns="http://www.w3.org/2000/svg"><path d="M2 2l16 16M2 18L18 2" stroke="currentColor" stroke-width="2"/></svg><svg fill="none" viewBox="0 0 30 22" id="icon_burger_start" xmlns="http://www.w3.org/2000/svg"><path d="M0 1h30M0 11h30M0 21h30" stroke="currentColor" stroke-width="2"/></svg><svg fill="none" viewBox="0 0 20 20" id="icon_calendar" xmlns="http://www.w3.org/2000/svg"><path d="M4.667 0v6.667M15.333 0v6.667M4 10h4m8 0h-4m-8 4h4m4 0h4M2 3.333h16c.736 0 1.333.597 1.333 1.334V18c0 .736-.597 1.333-1.333 1.333H2A1.333 1.333 0 01.667 18V4.667c0-.737.597-1.334 1.333-1.334z" stroke="currentColor"/></svg><svg fill="none" viewBox="0 0 15 15" id="icon_phone" xmlns="http://www.w3.org/2000/svg"><path d="M4.72.5H2.5a2 2 0 00-2 2v2c0 5.523 4.477 10 10 10h2a2 2 0 002-2v-1.382a1 1 0 00-.553-.894l-2.416-1.208a1 1 0 00-1.396.578l-.297.893a1.21 1.21 0 01-1.385.804A6.047 6.047 0 013.71 6.547a1.21 1.21 0 01.804-1.385l1.108-.37a1 1 0 00.654-1.19L5.69 1.257A1 1 0 004.72.5z" fill="currentColor"/></svg><svg fill="none" viewBox="0 0 31 30" id="icon_search" xmlns="http://www.w3.org/2000/svg"><path d="M18.33 19.333L24.995 26M13.33 22.667A8.333 8.333 0 1113.33 6a8.333 8.333 0 010 16.667z" stroke="currentColor" stroke-width="2"/></svg><svg fill="none" viewBox="0 0 36 36" id="icon_telegram"><g clip-path="url(#icon_tg_a)"><path fill-rule="evenodd" clip-rule="evenodd" d="M36 18c0 9.942-8.059 18-18 18S0 27.943 0 18C0 8.06 8.059 0 18 0s18 8.06 18 18zm-23.947-1.648c-1.803.787-3.655 1.596-5.35 2.53-.884.647.292 1.105 1.395 1.535.175.068.349.136.512.203l.413.13c1.227.391 2.595.827 3.786.172 1.957-1.124 3.803-2.424 5.648-3.722.604-.425 1.208-.85 1.816-1.27l.096-.062c.518-.335 1.683-1.09 1.252-.05-1.019 1.114-2.11 2.1-3.207 3.092a71.38 71.38 0 00-2.207 2.053c-.63.513-1.286 1.544-.58 2.262a318.577 318.577 0 004.928 3.359c.54.363 1.078.725 1.616 1.089.91.725 2.33.138 2.53-.996l.267-1.564c.494-2.884.987-5.769 1.423-8.662.06-.454.126-.907.194-1.361.162-1.1.325-2.203.376-3.309-.131-1.104-1.47-.861-2.214-.613-3.83 1.457-7.62 3.022-11.396 4.615-.427.189-.861.378-1.298.569z" fill="currentColor"/></g></svg><svg fill="none" viewBox="0 0 40 40" id="swiper_back" xmlns="http://www.w3.org/2000/svg"><path d="M22.667 12l-8 8 8 8M20 38.667C9.69 38.667 1.333 30.309 1.334 20 1.334 9.69 9.69 1.333 20 1.333c10.31 0 18.667 8.358 18.667 18.667 0 10.31-8.358 18.667-18.667 18.667z" stroke="currentColor" stroke-width="2" stroke-linecap="square"/></svg><svg fill="none" viewBox="0 0 40 40" id="swiper_next" xmlns="http://www.w3.org/2000/svg"><path d="M17.333 28l8-8-8-8M20 1.333c10.31 0 18.667 8.358 18.667 18.667 0 10.31-8.358 18.667-18.667 18.667C9.69 38.667 1.333 30.309 1.333 20 1.333 9.69 9.691 1.333 20 1.333z" stroke="currentColor" stroke-width="2" stroke-linecap="square"/></svg></svg>