<?xml version="1.0" encoding="utf-8"?><svg viewBox="0 0 40 40" xmlns="http://www.w3.org/2000/svg" xmlns:xlink="http://www.w3.org/1999/xlink"><style>:root>svg{display:none}:root>svg:target{display:block}</style><svg fill="none" viewBox="0 0 20 20" id="icon_burger_end" xmlns="http://www.w3.org/2000/svg"><path d="M2 2l16 16M2 18L18 2" stroke="currentColor" stroke-width="2"/></svg><svg fill="none" viewBox="0 0 30 22" id="icon_burger_start" xmlns="http://www.w3.org/2000/svg"><path d="M0 1h30M0 11h30M0 21h30" stroke="currentColor" stroke-width="2"/></svg><svg fill="none" viewBox="0 0 20 20" id="icon_calendar" xmlns="http://www.w3.org/2000/svg"><path d="M4.667 0v6.667M15.333 0v6.667M4 10h4m8 0h-4m-8 4h4m4 0h4M2 3.333h16c.736 0 1.333.597 1.333 1.334V18c0 .736-.597 1.333-1.333 1.333H2A1.333 1.333 0 01.667 18V4.667c0-.737.597-1.334 1.333-1.334z" stroke="currentColor"/></svg><svg fill="none" viewBox="0 0 15 15" id="icon_phone" xmlns="http://www.w3.org/2000/svg"><path d="M4.72.5H2.5a2 2 0 00-2 2v2c0 5.523 4.477 10 10 10h2a2 2 0 002-2v-1.382a1 1 0 00-.553-.894l-2.416-1.208a1 1 0 00-1.396.578l-.297.893a1.21 1.21 0 01-1.385.804A6.047 6.047 0 013.71 6.547a1.21 1.21 0 01.804-1.385l1.108-.37a1 1 0 00.654-1.19L5.69 1.257A1 1 0 004.72.5z" fill="currentColor"/></svg><svg fill="none" viewBox="0 0 31 30" id="icon_search" xmlns="http://www.w3.org/2000/svg"><path d="M18.33 19.333L24.995 26M13.33 22.667A8.333 8.333 0 1113.33 6a8.333 8.333 0 010 16.667z" stroke="currentColor" stroke-width="2"/></svg><svg fill="none" viewBox="0 0 40 40" id="swiper_back" xmlns="http://www.w3.org/2000/svg"><path d="M22.667 12l-8 8 8 8M20 38.667C9.69 38.667 1.333 30.309 1.334 20 1.334 9.69 9.69 1.333 20 1.333c10.31 0 18.667 8.358 18.667 18.667 0 10.31-8.358 18.667-18.667 18.667z" stroke="currentColor" stroke-width="2" stroke-linecap="square"/></svg><svg fill="none" viewBox="0 0 40 40" id="swiper_next" xmlns="http://www.w3.org/2000/svg"><path d="M17.333 28l8-8-8-8M20 1.333c10.31 0 18.667 8.358 18.667 18.667 0 10.31-8.358 18.667-18.667 18.667C9.69 38.667 1.333 30.309 1.333 20 1.333 9.69 9.691 1.333 20 1.333z" stroke="currentColor" stroke-width="2" stroke-linecap="square"/></svg></svg>